<?xml version="1.0" standalone="no"?>
<!DOCTYPE svg PUBLIC "-//W3C//DTD SVG 20010904//EN"
 "http://www.w3.org/TR/2001/REC-SVG-20010904/DTD/svg10.dtd">
<svg version="1.0" xmlns="http://www.w3.org/2000/svg"
 width="500.000000pt" height="500.000000pt" viewBox="0 0 500.000000 500.000000"
 preserveAspectRatio="xMidYMid meet">
<metadata>
Created by potrace 1.14, written by Peter Selinger 2001-2017
</metadata>
<g transform="translate(0.000000,500.000000) scale(0.100000,-0.100000)"
fill="#000000" stroke="none">
<path d="M2336 4763 c-1 -1 -17 -5 -36 -8 -68 -11 -257 -75 -291 -98 -19 -13
-42 -26 -51 -30 -10 -3 -18 -11 -18 -17 0 -6 -4 -8 -10 -5 -12 7 -72 -74 -64
-87 4 -6 0 -14 -7 -19 -23 -15 -34 -10 -13 6 22 17 9 19 -32 5 -22 -8 -33 -22
-45 -55 -19 -52 -15 -60 7 -12 l15 32 -7 -35 c-8 -43 -13 -52 -24 -45 -5 3
-12 0 -16 -6 -5 -8 -3 -9 6 -4 10 6 12 1 6 -25 l-6 -34 25 24 c14 13 27 21 30
18 16 -16 12 -54 -10 -86 -13 -19 -22 -39 -19 -44 3 -4 1 -8 -5 -8 -6 0 -15
-17 -20 -37 -15 -52 -14 -55 8 -43 11 5 22 10 24 10 2 0 2 -30 0 -67 -4 -59 2
-89 43 -228 69 -235 69 -234 62 -241 -4 -3 -19 3 -33 14 -55 43 -86 5 -84
-103 2 -76 35 -171 96 -276 18 -30 35 -70 38 -89 14 -79 46 -175 82 -242 37
-69 140 -187 175 -201 23 -8 16 -39 -16 -74 -14 -15 -26 -33 -26 -40 0 -7 -4
-13 -8 -13 -4 0 -15 -12 -24 -27 -9 -16 -25 -37 -35 -49 -19 -21 -121 -83
-137 -82 -5 0 -12 -4 -15 -9 -5 -8 -115 -63 -231 -116 -55 -25 -262 -103 -295
-111 -103 -25 -188 -96 -196 -163 -1 -5 -5 -15 -9 -23 -9 -17 -16 -61 -25
-160 -3 -36 -8 -83 -11 -104 -4 -21 -8 -55 -11 -75 -2 -20 -5 -45 -7 -56 -1
-11 2 -28 6 -38 6 -11 5 -17 -2 -17 -6 0 -8 -5 -4 -11 11 -19 6 -82 -14 -154
-12 -46 -18 -96 -16 -145 6 -223 4 -302 -10 -347 -3 -10 -8 -58 -11 -108 -3
-49 -8 -98 -11 -108 -3 -10 -7 -42 -9 -70 -2 -29 -5 -52 -5 -52 -1 0 -4 -11
-7 -25 -2 -14 -6 -32 -8 -40 -2 -14 40 -60 56 -60 4 0 14 -6 21 -13 23 -23
161 -107 175 -107 7 0 13 -4 13 -9 0 -5 8 -11 18 -14 9 -3 28 -13 42 -21 45
-29 284 -133 321 -140 14 -3 39 -12 74 -26 11 -4 43 -13 70 -20 28 -7 61 -16
75 -21 14 -5 36 -11 50 -13 14 -3 35 -7 46 -10 68 -15 174 -31 294 -44 132
-14 521 -5 551 14 4 2 31 6 61 9 124 11 463 104 506 137 6 6 12 8 12 5 0 -16
377 171 391 195 3 5 8 9 10 7 4 -2 148 89 159 101 3 3 25 21 50 40 25 19 47
37 50 40 3 3 34 30 70 60 76 64 240 228 240 240 0 5 3 10 8 12 33 14 199 248
282 397 77 136 78 157 21 329 -50 149 -54 169 -56 272 -5 218 -50 322 -160
370 -60 26 -78 32 -100 35 -11 2 -33 6 -50 9 -16 3 -62 8 -101 10 -39 2 -84
10 -100 19 -83 45 -254 125 -374 174 -47 19 -104 44 -127 54 -23 10 -48 19
-55 19 -8 0 -18 4 -23 9 -9 9 -83 38 -110 44 -6 2 -29 14 -50 27 -22 14 -44
26 -49 29 -18 8 -99 96 -155 169 -32 42 -73 89 -90 105 -33 29 -38 46 -19 65
7 7 9 12 5 12 -3 0 -3 10 2 23 5 12 12 42 15 67 4 25 8 54 10 65 3 11 5 26 5
33 1 10 7 9 29 -2 21 -11 33 -12 47 -3 28 15 65 58 71 85 4 12 11 22 17 22 6
0 8 3 4 6 -3 3 -2 17 4 31 5 13 11 39 14 56 7 51 16 99 25 140 17 79 1 177
-35 207 -21 17 -55 23 -55 10 0 -6 -5 -10 -11 -10 -6 0 -25 -11 -41 -25 -36
-31 -42 -28 -27 11 6 16 13 49 15 74 2 25 6 59 8 75 3 17 8 48 12 70 3 22 7
45 8 50 1 6 4 15 7 20 10 19 3 230 -8 255 -6 14 -11 29 -11 34 0 5 -4 12 -9
15 -4 3 -25 42 -47 86 -21 44 -44 85 -50 90 -6 6 -29 33 -50 60 -58 74 -104
113 -170 147 -64 32 -72 34 -181 44 -66 6 -334 11 -339 7z"/>
</g>
</svg>
